<svg width="1130" height="431" viewBox="0 0 1130 431" fill="none" xmlns="http://www.w3.org/2000/svg">
<path d="M104.85 327.295L123.35 309.165C116.05 307.345 108.969 304.74 102.23 301.395C79.1448 289.922 61.0725 270.377 51.4401 246.465C45.6893 232.123 43.18 216.686 44.0917 201.26C45.0034 185.835 49.3136 170.801 56.7138 157.236C64.1139 143.671 74.4211 131.909 86.8978 122.792C99.3744 113.676 113.712 107.429 128.885 104.501C144.057 101.572 159.689 102.034 174.663 105.852C189.636 109.671 203.58 116.752 215.497 126.588C227.414 136.425 237.01 148.775 243.597 162.753C250.184 176.731 253.6 191.993 253.6 207.445C253.6 209.685 253.527 211.912 253.38 214.125C253.111 218.417 252.58 222.688 251.79 226.915C251.166 233.421 249.9 239.849 248.01 246.105C239.72 273.905 220.16 299.615 199.46 319.595L148.34 368.935H195.52C211.3 368.938 226.432 375.207 237.59 386.365C248.748 397.523 255.017 412.655 255.02 428.435H62.3601C62.3589 392.03 76.3794 357.024 101.51 330.685C102.6 329.535 103.713 328.405 104.85 327.295Z" fill="#DA163D"/>
<path d="M231.2 142.675L186.13 168.695L96.52 220.435L51.44 246.465C48.2108 238.412 46.0003 229.986 44.86 221.385L97.51 190.985L160.15 154.825L212.78 124.425C219.653 129.721 225.84 135.852 231.2 142.675V142.675Z" fill="#F8F8FF"/>
<path d="M253.38 214.125C253.111 218.417 252.58 222.688 251.79 226.915C251.166 233.421 249.9 239.849 248.01 246.105L101.51 330.685C102.6 329.535 103.713 328.405 104.85 327.295L123.35 309.165C116.05 307.345 108.969 304.74 102.23 301.395L253.38 214.125Z" fill="#F8F8FF"/>
<path d="M148.771 261.275C178.502 261.275 202.603 237.174 202.603 207.443C202.603 177.713 178.502 153.611 148.771 153.611C119.041 153.611 94.9396 177.713 94.9396 207.443C94.9396 237.174 119.041 261.275 148.771 261.275Z" fill="white"/>
<path d="M898.941 330.694L917.441 312.564C910.141 310.744 903.06 308.139 896.321 304.794C873.236 293.321 855.163 273.776 845.531 249.864C839.78 235.522 837.271 220.085 838.183 204.66C839.094 189.234 843.405 174.201 850.805 160.635C858.205 147.07 868.512 135.308 880.989 126.191C893.465 117.075 907.803 110.829 922.975 107.9C938.148 104.972 953.78 105.433 968.754 109.251C983.727 113.07 997.671 120.151 1009.59 129.988C1021.51 139.824 1031.1 152.174 1037.69 166.152C1044.27 180.13 1047.69 195.392 1047.69 210.844C1047.69 213.084 1047.62 215.311 1047.47 217.524C1047.2 221.816 1046.67 226.087 1045.88 230.314C1045.26 236.82 1043.99 243.248 1042.1 249.504C1033.81 277.304 1014.25 303.014 993.551 322.994L942.431 372.334H989.611C1005.39 372.337 1020.52 378.606 1031.68 389.764C1042.84 400.922 1049.11 416.055 1049.11 431.834H856.451C856.45 395.43 870.47 360.423 895.601 334.084C896.691 332.934 897.804 331.804 898.941 330.694Z" fill="#DA163D"/>
<path d="M1025.29 146.074L980.221 172.094L890.611 223.834L845.531 249.864C842.302 241.811 840.091 233.386 838.951 224.784L891.601 194.384L954.241 158.224L1006.87 127.824C1013.74 133.121 1019.93 139.251 1025.29 146.074V146.074Z" fill="white"/>
<path d="M1047.47 217.524C1047.2 221.816 1046.67 226.087 1045.88 230.314C1045.26 236.82 1043.99 243.248 1042.1 249.504L895.601 334.084C896.691 332.934 897.804 331.804 898.941 330.694L917.441 312.564C910.141 310.744 903.06 308.139 896.321 304.794L1047.47 217.524Z" fill="white"/>
<path d="M942.862 264.674C972.593 264.674 996.694 240.573 996.694 210.842C996.694 181.112 972.593 157.01 942.862 157.01C913.132 157.01 889.031 181.112 889.031 210.842C889.031 240.573 913.132 264.674 942.862 264.674Z" fill="white"/>
<path d="M544.85 323.275C544.845 350.466 534.275 376.592 515.371 396.137C496.467 415.682 470.709 427.118 443.533 428.03C416.357 428.942 389.89 419.26 369.718 401.026C349.547 382.793 337.249 357.435 335.42 330.305C335.26 327.985 335.18 325.635 335.18 323.275C335.181 297.874 344.403 273.337 361.134 254.224C377.864 235.111 400.964 222.722 426.141 219.358C451.319 215.995 476.861 221.886 498.021 235.938C519.182 249.989 534.522 271.245 541.19 295.755V295.765C543.564 304.489 544.791 313.484 544.84 322.525V322.535C544.85 322.785 544.85 323.025 544.85 323.275Z" fill="#DA163D"/>
<path d="M498.41 236.205L440.81 269.455L392.98 297.075L335.42 330.305C335.26 327.985 335.18 325.635 335.18 323.275C335.175 315.47 336.04 307.688 337.76 300.075L471.06 223.115C480.765 226.125 489.978 230.535 498.41 236.205V236.205Z" fill="#F8F8FF"/>
<path d="M544.84 322.525V322.535L478.68 360.725L478.66 360.735L453.09 375.505L386.95 413.695C379.156 409.118 371.99 403.548 365.63 397.125L412.94 369.805L493.85 323.095L541.19 295.765C543.564 304.489 544.791 313.484 544.84 322.525V322.525Z" fill="#F8F8FF"/>
<path d="M440.015 377.106C469.745 377.106 493.847 353.004 493.847 323.274C493.847 293.543 469.745 269.442 440.015 269.442C410.284 269.442 386.183 293.543 386.183 323.274C386.183 353.004 410.284 377.106 440.015 377.106Z" fill="white"/>
<path d="M684.04 313.175L686.09 311.165C664.441 305.767 645.081 293.597 630.831 276.428C616.582 259.259 608.187 237.988 606.87 215.715C606.74 213.645 606.677 211.555 606.68 209.445C606.676 181.773 617.614 155.221 637.109 135.582C656.604 115.942 683.074 104.808 710.745 104.607C738.417 104.406 765.046 115.156 784.823 134.511C804.601 153.865 815.923 180.255 816.32 207.925C816.34 208.435 816.34 208.935 816.34 209.445C816.339 215.977 815.733 222.495 814.53 228.915C814.227 232.185 813.75 235.436 813.1 238.655V238.665C806.84 270.065 785.23 299.365 762.2 321.595L711.08 370.935H758.26C774.04 370.938 789.172 377.207 800.33 388.365C811.488 399.523 817.757 414.655 817.76 430.435H625.09C625.091 411.597 628.85 392.949 636.148 375.582C643.445 358.215 654.135 342.479 667.59 329.295L684.04 313.175Z" fill="#DA163D"/>
<path d="M789.36 139.235L611.77 241.765C609.031 233.327 607.384 224.572 606.87 215.715L769.27 121.955C776.67 126.843 783.42 132.65 789.36 139.235V139.235Z" fill="#FEFEFF"/>
<path d="M816.34 209.445C816.339 215.977 815.733 222.495 814.53 228.915C814.227 232.185 813.75 235.436 813.1 238.655V238.665L684.04 313.175L686.09 311.165C676.125 308.682 666.582 304.74 657.77 299.465L816.32 207.925C816.34 208.435 816.34 208.935 816.34 209.445Z" fill="white"/>
<path d="M711.509 263.275C741.24 263.275 765.341 239.174 765.341 209.443C765.341 179.713 741.24 155.611 711.509 155.611C681.779 155.611 657.677 179.713 657.677 209.443C657.677 239.174 681.779 263.275 711.509 263.275Z" fill="white"/>
<path d="M333.902 295.338V304.229C333.902 304.229 270.263 299.55 266.988 294.402C263.712 289.255 271.199 255.096 271.199 255.096L326.415 265.858L333.902 295.338Z" fill="#2F2E41"/>
<path opacity="0.3" d="M333.902 295.338V304.229C333.902 304.229 270.263 299.55 266.988 294.402C263.712 289.255 271.199 255.096 271.199 255.096L326.415 265.858L333.902 295.338Z" fill="black"/>
<path d="M278.686 320.139L313.313 368.804L317.993 372.08L304.422 392.201L261.84 342.6C261.84 342.6 249.206 330.433 255.289 323.414C261.372 316.395 278.686 320.139 278.686 320.139Z" fill="#2F2E41"/>
<path d="M315.653 372.08C315.653 372.08 322.672 369.272 326.883 374.887L320.8 388.926C320.8 388.926 305.826 411.854 299.743 411.386C293.66 410.919 295.064 402.028 296.935 401.092C298.807 400.156 303.45 391.068 303.45 391.068L315.653 372.08Z" fill="#2F2E41"/>
<path d="M305.799 406.75L305.826 420.745C304.522 423.573 302.245 425.837 299.41 427.126C296.576 428.414 293.372 428.641 290.384 427.764C279.154 424.957 288.513 416.066 288.513 416.066L291.32 408.579L305.799 406.75Z" fill="#2F2E41"/>
<path d="M309.336 163.146C317.089 163.146 323.374 156.861 323.374 149.108C323.374 141.355 317.089 135.07 309.336 135.07C301.583 135.07 295.298 141.355 295.298 149.108C295.298 156.861 301.583 163.146 309.336 163.146Z" fill="#A0616A"/>
<path d="M296.935 148.874L294.128 167.124L307.23 185.841L316.589 157.297L296.935 148.874Z" fill="#A0616A"/>
<path d="M300.679 172.739L313.29 167.358L315.185 259.307L275.878 256.499L289.448 168.527L294.74 163.146L300.679 172.739Z" fill="#575A89"/>
<path d="M301.147 181.162L301.496 177.649L305.358 178.354L314.033 165.094L321.268 168.995L340.922 181.63L332.499 235.442V272.409C332.499 272.409 342.793 291.595 334.37 304.229L322.672 279.896C322.672 279.896 300.679 241.994 301.147 230.295C301.615 218.597 301.147 181.162 301.147 181.162Z" fill="#2F2E41"/>
<path d="M292.724 176.015L294.892 162.156L290.384 165.252L269.327 175.079L259.033 301.421L283.833 310.312C283.833 310.312 300.211 187.245 292.724 176.015Z" fill="#2F2E41"/>
<path d="M274.007 253.224L319.864 255.096C319.864 255.096 324.076 280.364 320.8 300.485C317.525 320.607 305.358 409.983 305.358 409.983H289.449L295.532 338.856L293.66 295.806L280.09 322.01L255.289 323.414L274.007 253.224Z" fill="#2F2E41"/>
<path d="M314.97 124.629C316.061 124.452 317.267 123.945 318.192 124.55C318.668 124.957 319.049 125.464 319.307 126.035C320.378 127.783 322.253 128.837 323.945 129.994C325.638 131.151 327.326 132.666 327.632 134.693C327.896 136.438 327.07 138.167 327.045 139.932C327.014 142.165 328.225 144.585 327.081 146.503C326.559 147.38 325.629 147.945 325.057 148.791C324.048 150.284 324.052 152.691 322.349 153.28C322.423 151.148 322.303 149.013 321.99 146.902C321.939 146.291 321.754 145.699 321.447 145.168C320.685 144.029 319.123 143.856 317.783 143.566C316.065 143.183 314.446 142.444 313.031 141.397C311.616 140.35 310.436 139.018 309.567 137.487C310.425 138.502 309.452 140.219 308.146 140.465C307.482 140.518 306.815 140.417 306.196 140.171C305.578 139.924 305.024 139.539 304.578 139.044C305.071 140.191 305.307 141.431 305.269 142.679C305.231 143.926 304.921 145.15 304.359 146.265C303.797 147.38 302.998 148.358 302.018 149.13C301.038 149.903 299.901 150.452 298.686 150.738C298.749 149.945 298.607 149.15 298.273 148.428C297.94 147.706 297.427 147.082 296.783 146.616C295.43 145.661 293.497 145.377 292.692 143.93C292.227 142.749 292.222 141.436 292.678 140.252L293.825 135.698C293.929 134.519 294.33 133.387 294.99 132.405C295.65 131.424 296.547 130.625 297.599 130.084L301.037 127.884C302.109 127.108 303.299 126.509 304.561 126.11C305.686 125.828 306.826 126.177 307.928 125.875C308.84 125.625 309.58 124.971 310.527 124.763C311.99 124.44 313.498 124.867 314.97 124.629Z" fill="#2F2E41"/>
<path d="M267.455 265.858C267.455 265.858 275.41 286.447 266.988 287.383C258.565 288.319 259.033 269.134 259.033 269.134L267.455 265.858Z" fill="#A0616A"/>
<path d="M274.007 175.546L271.755 173.946L269.327 174.611L256.693 221.872L252.949 273.345L270.263 266.326L269.327 229.827L274.007 175.546Z" fill="#2F2E41"/>
<path d="M323.608 273.813L318.461 279.428L316.171 269.344L323.608 273.813Z" fill="#A0616A"/>
<path d="M336.71 182.098L339.084 180.448L340.922 181.162C340.922 181.162 356.831 227.02 353.556 238.25C350.28 249.481 325.48 279.428 325.48 279.428L314.249 267.262L335.306 235.91L328.755 228.423L336.71 182.098Z" fill="#2F2E41"/>
<path opacity="0.3" d="M294.358 352.579L292.188 377.95L294.358 342.164L295.532 343.814L294.358 352.579Z" fill="black"/>
<path opacity="0.3" d="M311.39 366.101L305.799 406.75L313.547 368.57L311.39 366.101Z" fill="black"/>
<path d="M1130 427.525H0V429.525H1130V427.525Z" fill="#3F3D56"/>
<path d="M599 346.525C613.912 346.525 626 334.437 626 319.525C626 304.613 613.912 292.525 599 292.525C584.088 292.525 572 304.613 572 319.525C572 334.437 584.088 346.525 599 346.525Z" fill="white"/>
<path d="M286.63 5.82886C286.63 5.82886 341.378 62.3079 336.268 65.7518C331.159 69.1956 286.63 5.82886 286.63 5.82886Z" fill="#E6E6E6"/>
<path d="M276.41 1.69629C276.41 1.69629 299.461 37.9193 294.756 41.441C290.052 44.9627 276.41 1.69629 276.41 1.69629Z" fill="#E6E6E6"/>
<path d="M266.658 0.318726C266.658 0.318726 245.913 58.0775 258.643 57.482C271.373 56.8865 266.658 0.318726 266.658 0.318726Z" fill="#E6E6E6"/>
<path d="M259.493 3.18982C259.493 3.18982 224.669 40.7707 227.856 44.7288C231.043 48.687 259.493 3.18982 259.493 3.18982Z" fill="#E6E6E6"/>
<path d="M277.14 54.0427C277.14 54.0427 271.3 94.6801 282.25 93.9913C293.2 93.3026 277.14 54.0427 277.14 54.0427Z" fill="#E6E6E6"/>
</svg>
