<svg width="292" height="278" viewBox="0 0 292 278" fill="none" xmlns="http://www.w3.org/2000/svg">
<path opacity="0.5" d="M109.812 40.4396C106.162 35.4396 98.6224 40.8496 102.032 45.9896C102.922 47.3296 103.892 48.6396 104.812 49.8796C116.052 65.0396 121.872 83.4596 126.882 101.66C128.112 106.12 129.302 110.89 127.882 115.31C129.882 103.48 128.582 91.3096 125.552 79.6696C122.522 68.0296 117.812 56.9696 112.942 46.0096C112.101 44.0464 111.052 42.1791 109.812 40.4396V40.4396Z" fill="#DA163D"/>
<path d="M36.9424 72.3295C29.3624 72.0995 28.4024 83.5895 35.9424 84.1895C37.9424 84.3495 39.9424 84.3996 41.8224 84.4496C65.0224 85.0796 86.9624 93.4496 108.042 102.54C113.212 104.76 118.642 107.26 121.672 112.01C112.172 101.01 99.6724 92.9096 86.3424 87.0096C73.0124 81.1096 58.8524 77.1496 44.6724 73.5196C42.1459 72.8467 39.5543 72.4478 36.9424 72.3295V72.3295Z" fill="#DA163D"/>
<path opacity="0.2" d="M39.0224 100.58C34.2424 100.76 35.3224 107.58 40.1424 107.58C41.4024 107.58 42.6524 107.58 43.8524 107.48C58.4924 106.89 73.4824 110.93 88.0224 115.37C91.5924 116.46 95.3524 117.7 97.9524 120.37C90.3824 114.28 81.3524 110.05 72.1424 107.12C62.9324 104.19 53.4724 102.48 44.0524 100.94C42.3917 100.654 40.7068 100.534 39.0224 100.58V100.58Z" fill="#DA163D"/>
<path opacity="0.5" d="M136.942 227C138.302 231.59 144.622 228.86 143.472 224.18C143.162 222.96 142.802 221.75 142.472 220.6C138.262 206.6 138.472 191.05 139.152 175.86C139.322 172.14 139.592 168.18 141.532 165C137.532 173.85 135.662 183.64 135.102 193.29C134.542 202.94 135.242 212.53 136.102 222.04C136.223 223.716 136.505 225.377 136.942 227V227Z" fill="#DA163D"/>
<path opacity="0.2" d="M47.7424 34.0596C44.8624 33.5596 44.6424 37.7596 47.5224 38.3996C48.2724 38.5596 49.0324 38.6896 49.7524 38.8096C58.5724 40.3196 67.0024 44.6296 75.1224 49.1296C77.1224 50.2396 79.2124 51.4596 80.4224 53.3796C76.5748 48.8242 71.9203 45.0172 66.6924 42.1496C61.5445 39.3401 56.1967 36.9136 50.6924 34.8896C49.7379 34.5192 48.75 34.2412 47.7424 34.0596Z" fill="#DA163D"/>
<path d="M3.27241 145.26C-4.03759 149.02 2.14241 159.35 9.65241 155.92C11.6524 155.02 13.5324 154.02 15.3624 153.07C37.6924 141.49 63.6324 137.22 89.1524 133.93C95.4124 133.13 102.092 132.42 107.882 134.93C92.0924 130.48 75.2824 130.11 59.0324 132C42.7824 133.89 26.9724 138 11.3224 142.26C8.54565 142.988 5.84887 143.993 3.27241 145.26V145.26Z" fill="#DA163D"/>
<path opacity="0.5" d="M24.1724 185.45C18.9224 190.35 27.1224 196.14 32.6324 191.45C34.0724 190.22 35.4424 188.92 36.7524 187.69C52.7524 172.69 73.9124 161.97 94.9724 152.12C100.142 149.7 121.412 147.23 127.092 147.36C112.262 148.69 81.9524 153.36 68.4824 159.45C55.0124 165.54 42.5224 173.15 30.2324 180.88C28.0764 182.214 26.0478 183.743 24.1724 185.45V185.45Z" fill="#DA163D"/>
<path d="M61.6124 249.61C60.0824 256.61 70.1124 256.72 71.9724 249.72C72.4624 247.88 72.8524 246.04 73.2324 244.28C77.8524 222.82 89.1824 201.99 100.902 181.92C103.782 176.99 119.902 162.86 124.632 159.74C113.182 169.27 90.8824 190.31 83.2824 203.01C75.6824 215.71 69.7424 229.01 64.0224 242.38C62.9987 244.71 62.192 247.131 61.6124 249.61V249.61Z" fill="#DA163D"/>
<path d="M137.032 3.30956C133.452 -3.99044 123.232 2.00955 126.472 9.48955C127.322 11.4896 128.282 13.3696 129.182 15.1896C140.182 37.4696 143.992 63.2396 146.822 88.5796C147.512 94.7896 148.112 101.42 145.582 107.13C150.202 91.5396 150.812 74.8796 149.212 58.7496C147.612 42.6196 143.852 26.8996 139.872 11.3296C139.204 8.56575 138.252 5.87821 137.032 3.30956Z" fill="#DA163D"/>
<path d="M80.0524 15.7196C80.2345 15.8362 80.4461 15.8986 80.6624 15.8996C81.0624 15.8996 81.3424 15.4996 81.5024 15.1396C82.4024 13.1996 81.8824 10.6796 83.2624 9.04956C84.6596 10.7279 85.7865 12.6139 86.6024 14.6396L91.8524 13.0196C92.0961 14.0357 92.1331 15.0904 91.9614 16.1211C91.7896 17.1518 91.4125 18.1374 90.8524 19.0196C91.7755 19.4219 92.6163 19.9915 93.3324 20.6996C93.6831 21.0601 93.9282 21.5099 94.041 22.0001C94.1539 22.4902 94.1301 23.002 93.9724 23.4796C92.7594 23.7775 91.5103 23.9021 90.2624 23.8496C90.4579 26.1564 90.3266 28.4794 89.8724 30.7496C89.8416 31.0871 89.6801 31.3993 89.4224 31.6196C89.0324 31.8696 88.5324 31.6196 88.1424 31.4096C86.3235 30.2908 84.833 28.7107 83.8224 26.8296L81.8724 31.4896C81.7322 31.9713 81.4234 32.3866 81.0024 32.6596C80.7057 32.7621 80.3833 32.7627 80.0862 32.6612C79.7891 32.5598 79.5344 32.3621 79.3624 32.0996C79.0325 31.5634 78.8337 30.957 78.7824 30.3296L78.0524 25.8896C78.0431 25.659 77.9588 25.4378 77.8124 25.2596C77.5873 25.0948 77.3104 25.0167 77.0324 25.0396C75.179 24.9862 73.3291 24.9662 71.4824 24.9796C71.1624 23.9796 72.1424 23.0796 73.0924 22.6696C74.0424 22.2596 75.1624 21.9396 75.6424 21.0196C76.6424 19.1496 74.1024 16.5396 75.1724 14.9196C76.4124 13.0496 78.4324 14.9196 80.0524 15.7196Z" fill="#DA163D"/>
<path opacity="0.5" d="M181.362 40.4396C185.012 35.4396 192.552 40.8496 189.142 45.9896C188.252 47.3296 187.272 48.6396 186.352 49.8796C175.122 65.0396 169.352 83.4596 164.282 101.66C163.052 106.12 161.862 110.89 163.282 115.31C161.282 103.48 162.582 91.3096 165.612 79.6696C168.642 68.0296 173.352 56.9696 178.222 46.0096C179.067 44.046 180.12 42.1786 181.362 40.4396V40.4396Z" fill="#DA163D"/>
<path d="M254.232 72.3295C261.812 72.0995 262.772 83.5895 255.232 84.1895C253.232 84.3495 251.232 84.3996 249.352 84.4496C226.152 85.0796 204.212 93.4496 183.132 102.54C177.952 104.76 172.522 107.26 169.502 112.01C179.002 101.01 191.502 92.9096 204.832 87.0096C218.162 81.1096 232.312 77.1895 246.492 73.5495C249.021 72.8673 251.616 72.4583 254.232 72.3295Z" fill="#DA163D"/>
<path opacity="0.5" d="M252.172 100.58C256.962 100.76 255.882 107.58 251.062 107.58C249.802 107.58 248.542 107.58 247.342 107.48C232.712 106.89 217.722 110.93 203.182 115.37C199.612 116.46 195.842 117.7 193.252 120.37C200.822 114.28 209.842 110.05 219.062 107.12C228.282 104.19 237.732 102.48 247.152 100.94C248.81 100.655 250.491 100.534 252.172 100.58V100.58Z" fill="#DA163D"/>
<path opacity="0.2" d="M243.422 34.0596C246.302 33.5596 246.522 37.7596 243.652 38.3996C242.902 38.5596 242.142 38.6896 241.422 38.8096C232.602 40.3196 224.162 44.6296 216.042 49.1296C214.042 50.2396 211.962 51.4596 210.752 53.3796C214.6 48.8242 219.254 45.0172 224.482 42.1496C229.63 39.3401 234.978 36.9136 240.482 34.8896C241.433 34.519 242.418 34.2411 243.422 34.0596V34.0596Z" fill="#DA163D"/>
<path opacity="0.2" d="M168.442 235.7C167.792 238.55 163.832 237.13 164.352 234.24C164.492 233.48 164.672 232.73 164.832 232.02C166.832 223.3 166.112 213.85 165.092 204.63C164.842 202.36 164.522 199.96 163.212 198.1C165.907 203.412 167.602 209.174 168.212 215.1C168.813 220.929 168.99 226.794 168.742 232.65C168.742 233.674 168.641 234.695 168.442 235.7Z" fill="#DA163D"/>
<path opacity="0.5" d="M241.582 216.74C243.832 220.55 238.302 220.3 235.882 216.48C235.242 215.48 234.662 214.48 234.092 213.48C227.242 201.83 216.822 190.3 206.322 179.16C203.742 176.43 200.952 173.55 197.702 171.73C205.913 177.317 213.485 183.789 220.282 191.03C227.022 198.03 232.972 205.42 238.802 212.75C239.818 214.015 240.747 215.348 241.582 216.74V216.74Z" fill="#DA163D"/>
<path opacity="0.2" d="M41.4424 216.74C39.1924 220.55 44.7224 220.3 47.1424 216.48C47.7824 215.48 48.3724 214.48 48.9324 213.48C55.7824 201.83 66.2124 190.3 76.7024 179.16C79.2824 176.43 82.0724 173.55 85.3224 171.73C77.1116 177.317 69.5395 183.789 62.7424 191.03C56.0024 198.03 50.0524 205.42 44.2224 212.75C43.2066 214.015 42.2778 215.348 41.4424 216.74V216.74Z" fill="#DA163D"/>
<path opacity="0.2" d="M114.632 235.7C115.282 238.55 119.242 237.13 118.722 234.24C118.582 233.48 118.402 232.73 118.242 232.02C116.242 223.3 116.962 213.85 117.982 204.63C118.232 202.36 118.552 199.96 119.852 198.1C117.162 203.413 115.467 209.175 114.852 215.1C114.247 220.929 114.07 226.795 114.322 232.65C114.326 233.674 114.43 234.695 114.632 235.7Z" fill="#DA163D"/>
<path opacity="0.2" d="M220.372 62.6896C223.252 62.1896 223.472 66.3896 220.592 67.0296C219.842 67.1896 219.082 67.3196 218.362 67.4396C209.542 68.9496 201.112 73.2596 192.992 77.7596C190.992 78.8696 188.902 80.0896 187.692 82.0096C191.544 77.4686 196.198 73.6754 201.422 70.8196C206.572 68.0143 211.92 65.5878 217.422 63.5596C218.376 63.1755 219.363 62.8842 220.372 62.6896V62.6896Z" fill="#DA163D"/>
<path opacity="0.2" d="M193.472 6.47957C195.952 4.93957 197.722 8.74957 195.302 10.4096C194.662 10.8496 194.012 11.2496 193.382 11.6296C185.772 16.3296 179.552 23.4796 173.702 30.6896C172.272 32.4596 170.782 34.3696 170.382 36.6096C172.263 30.9769 175.161 25.7369 178.932 21.1496C182.66 16.6229 186.711 12.3718 191.052 8.42956C191.794 7.70257 192.604 7.0495 193.472 6.47957Z" fill="#DA163D"/>
<path d="M287.902 145.26C295.212 149.02 289.032 159.35 281.522 155.92C279.522 155.02 277.642 154.02 275.812 153.07C253.482 141.49 227.532 137.22 202.022 133.93C195.752 133.13 189.082 132.42 183.292 134.93C199.082 130.48 215.882 130.11 232.142 132C248.402 133.89 264.142 138 279.852 142.26C282.629 142.988 285.326 143.993 287.902 145.26V145.26Z" fill="#DA163D"/>
<path opacity="0.5" d="M267.022 185.45C272.272 190.35 264.022 196.14 258.562 191.45C257.122 190.22 255.752 188.92 254.442 187.69C238.442 172.69 217.282 161.97 196.222 152.12C191.052 149.7 169.772 147.23 164.092 147.36C178.932 148.69 209.242 153.36 222.712 159.45C236.182 165.54 248.652 173.18 260.932 180.9C263.099 182.224 265.138 183.747 267.022 185.45Z" fill="#DA163D"/>
<path d="M205.172 257.61C205.812 264.76 195.842 263.61 194.882 256.42C194.622 254.54 194.472 252.66 194.312 250.87C192.412 229 183.782 206.87 174.662 185.53C172.432 180.29 158.222 164.25 153.902 160.53C164.072 171.41 183.552 195.08 189.512 208.62C195.472 222.16 199.682 236.16 203.682 250.1C204.407 252.552 204.906 255.066 205.172 257.61Z" fill="#DA163D"/>
<path d="M211.172 15.7196C210.987 15.8375 210.772 15.9 210.552 15.8996C210.162 15.8996 209.882 15.4996 209.712 15.1396C208.822 13.1996 209.332 10.6796 207.962 9.04956C206.561 10.7253 205.434 12.6119 204.622 14.6396L199.372 13.0196C199.131 14.0358 199.095 15.0901 199.267 16.1205C199.438 17.1509 199.814 18.1365 200.372 19.0196C199.454 19.4246 198.617 19.9939 197.902 20.6996C197.552 21.0601 197.307 21.5099 197.194 22.0001C197.081 22.4902 197.105 23.002 197.262 23.4796C198.475 23.7775 199.724 23.9021 200.972 23.8496C200.772 26.1564 200.903 28.48 201.362 30.7496C201.375 30.9173 201.422 31.0807 201.499 31.2301C201.577 31.3795 201.683 31.5119 201.812 31.6196C202.202 31.8696 202.702 31.6196 203.092 31.4096C204.909 30.2879 206.399 28.7084 207.412 26.8296L209.412 31.4896C209.545 31.9751 209.855 32.3929 210.282 32.6596C210.579 32.7621 210.901 32.7627 211.199 32.6612C211.496 32.5598 211.75 32.3621 211.922 32.0996C212.243 31.559 212.441 30.9548 212.502 30.3296L213.232 25.8896C213.242 25.659 213.326 25.4378 213.472 25.2596C213.694 25.0947 213.967 25.0164 214.242 25.0396C216.102 24.9896 217.952 24.9696 219.802 24.9796C220.122 23.9796 219.132 23.0796 218.192 22.6696C217.252 22.2596 216.112 21.9396 215.642 21.0196C214.642 19.1496 217.172 16.5396 216.112 14.9196C214.762 13.0496 212.742 14.9196 211.172 15.7196Z" fill="#DA163D"/>
<path opacity="0.2" d="M226.962 231.88C226.772 231.986 226.56 232.048 226.342 232.06C225.942 232.06 225.662 231.66 225.502 231.3C224.602 229.36 225.122 226.84 223.742 225.2C222.351 226.885 221.224 228.774 220.402 230.8L215.172 229.15C214.93 230.166 214.893 231.22 215.065 232.251C215.237 233.281 215.613 234.267 216.172 235.15C215.249 235.552 214.408 236.122 213.692 236.83C213.342 237.19 213.097 237.64 212.984 238.13C212.871 238.62 212.895 239.132 213.052 239.61C214.266 239.903 215.515 240.027 216.762 239.98C216.567 242.283 216.698 244.603 217.152 246.87C217.183 247.21 217.344 247.526 217.602 247.75C217.815 247.833 218.046 247.857 218.271 247.82C218.496 247.783 218.708 247.686 218.882 247.54C220.699 246.418 222.189 244.838 223.202 242.96L225.202 247.62C225.345 248.1 225.653 248.515 226.072 248.79C226.37 248.889 226.693 248.888 226.99 248.784C227.286 248.681 227.541 248.483 227.712 248.22C228.042 247.683 228.241 247.077 228.292 246.45L229.022 242.02C229.017 241.893 229.04 241.767 229.09 241.651C229.141 241.535 229.217 241.431 229.314 241.349C229.41 241.267 229.524 241.209 229.647 241.177C229.77 241.146 229.898 241.144 230.022 241.17C231.872 241.11 233.722 241.1 235.572 241.11C235.892 240.11 234.912 239.21 233.962 238.8C233.012 238.39 231.892 238.07 231.412 237.15C230.412 235.27 232.952 232.66 231.882 231.05C230.592 229.2 228.572 231.07 226.962 231.88Z" fill="#DA163D"/>
<path d="M271.432 86.9796C271.249 87.0947 271.039 87.1601 270.822 87.1696C270.628 87.128 270.448 87.0359 270.3 86.9024C270.153 86.769 270.043 86.599 269.982 86.4096C269.082 84.4596 269.602 81.9496 268.222 80.3096C266.821 81.9889 265.694 83.8788 264.882 85.9096L259.632 84.2796C259.392 85.296 259.357 86.35 259.528 87.3802C259.7 88.4104 260.075 89.3961 260.632 90.2796C259.712 90.681 258.874 91.2507 258.162 91.9596C257.813 92.3186 257.568 92.7667 257.455 93.2551C257.342 93.7435 257.365 94.2535 257.522 94.7296C258.735 95.0275 259.984 95.1521 261.232 95.0996C261.032 97.4064 261.163 99.7301 261.622 102C261.653 102.34 261.814 102.656 262.072 102.88C262.286 102.96 262.517 102.983 262.742 102.944C262.967 102.905 263.178 102.807 263.352 102.66C265.166 101.539 266.655 99.9634 267.672 98.0896L269.672 102.75C269.812 103.229 270.121 103.641 270.542 103.91C270.839 104.014 271.162 104.015 271.459 103.914C271.757 103.812 272.012 103.613 272.182 103.35C272.507 102.811 272.705 102.206 272.762 101.58L273.492 97.1396C273.504 96.9125 273.588 96.6951 273.732 96.5196C273.954 96.347 274.233 96.2648 274.512 96.2896C276.362 96.2896 278.212 96.2196 280.062 96.2896C280.382 95.2896 279.402 94.3896 278.452 93.9696C277.502 93.5496 276.382 93.2496 275.902 92.3296C274.902 90.4496 277.442 87.8396 276.372 86.2296C275.072 84.3096 273.052 86.1496 271.432 86.9796Z" fill="#DA163D"/>
<path d="M93.6124 253.56C93.3517 253.715 93.0557 253.801 92.7524 253.81C92.1924 253.81 91.8124 253.25 91.5824 252.75C90.3324 250.04 91.0524 246.54 89.1324 244.26C87.1832 246.6 85.6141 249.232 84.4824 252.06L77.1724 249.79C76.8279 251.208 76.7735 252.681 77.0124 254.121C77.2512 255.561 77.7784 256.938 78.5624 258.17C77.2788 258.732 76.1094 259.525 75.1124 260.51C74.6255 261.012 74.2852 261.638 74.1283 262.321C73.9714 263.003 74.004 263.715 74.2224 264.38C75.9098 264.792 77.6466 264.967 79.3824 264.9C79.1099 268.113 79.2951 271.348 79.9324 274.51C79.9137 274.797 79.9876 275.084 80.1434 275.326C80.2992 275.569 80.5286 275.756 80.7981 275.858C81.0676 275.961 81.3629 275.975 81.6408 275.898C81.9187 275.821 82.1646 275.657 82.3424 275.43C84.8677 273.866 86.937 271.666 88.3424 269.05L91.0624 275.55C91.2559 276.218 91.6859 276.794 92.2724 277.17C92.6846 277.317 93.1347 277.321 93.5491 277.179C93.9634 277.037 94.3172 276.759 94.5524 276.39C95.0094 275.64 95.2866 274.794 95.3624 273.92L96.3624 267.74C96.3807 267.423 96.4959 267.119 96.6924 266.87C96.9996 266.632 97.386 266.521 97.7724 266.56C100.352 266.48 102.942 266.46 105.522 266.48C105.962 265.11 104.592 263.83 103.272 263.25C101.952 262.67 100.382 262.25 99.7224 260.96C98.3724 258.34 101.862 254.71 100.382 252.46C98.6824 249.83 95.8624 252.44 93.6124 253.56Z" fill="#DA163D"/>
<path d="M19.6224 91.3096C19.3617 91.4648 19.0657 91.5509 18.7624 91.5596C18.2124 91.5596 17.8224 91.0096 17.5924 90.4996C16.3424 87.7996 17.0624 84.2896 15.1424 82.0096C13.1952 84.3512 11.6263 86.983 10.4924 89.8096L3.17238 87.5396C2.82877 88.9575 2.77387 90.4301 3.01094 91.8698C3.24802 93.3094 3.77223 94.6866 4.55239 95.9196C3.26766 96.4841 2.09808 97.2807 1.10237 98.2695C0.614485 98.7717 0.273568 99.3979 0.116657 100.08C-0.0402539 100.762 -0.00713982 101.475 0.212391 102.14C1.90027 102.549 3.63704 102.721 5.37239 102.65C5.10483 105.863 5.28996 109.098 5.92238 112.26C5.96294 112.733 6.18944 113.172 6.55239 113.48C6.84765 113.596 7.16899 113.631 7.48235 113.58C7.79571 113.529 8.08943 113.394 8.33239 113.19C10.8553 111.623 12.9239 109.424 14.3324 106.81L17.0524 113.3C17.2486 113.97 17.6777 114.548 18.2624 114.93C18.6766 115.064 19.1234 115.06 19.5349 114.917C19.9465 114.775 20.3002 114.502 20.5424 114.14C21.0023 113.395 21.2798 112.552 21.3524 111.68L22.3524 105.49C22.3695 105.171 22.4887 104.866 22.6924 104.62C23.0005 104.384 23.3862 104.273 23.7724 104.31C26.3524 104.243 28.9324 104.216 31.5124 104.23C31.9524 102.86 30.5824 101.58 29.2624 101C27.9424 100.42 26.3724 99.9995 25.7224 98.7095C24.3724 96.0995 27.8524 92.4595 26.3724 90.2095C24.6924 87.5795 21.8824 90.1496 19.6224 91.3096Z" fill="#DA163D"/>
<path opacity="0.2" d="M244.172 191.78C244.035 191.868 243.876 191.917 243.712 191.92C243.412 191.92 243.212 191.62 243.092 191.36C242.422 189.92 242.812 188.06 241.792 186.84C240.755 188.084 239.921 189.484 239.322 190.99L235.432 189.78C235.251 190.534 235.222 191.317 235.348 192.083C235.473 192.849 235.75 193.582 236.162 194.24C235.481 194.531 234.863 194.952 234.342 195.48C234.078 195.744 233.893 196.077 233.808 196.441C233.723 196.805 233.742 197.186 233.862 197.54C234.759 197.754 235.681 197.845 236.602 197.81C236.462 199.515 236.563 201.232 236.902 202.91C236.909 203.035 236.942 203.158 236.999 203.27C237.055 203.381 237.135 203.48 237.232 203.56C237.512 203.74 237.892 203.56 238.232 203.41C239.571 202.575 240.671 201.407 241.422 200.02L242.872 203.47C242.974 203.824 243.202 204.13 243.512 204.33C243.731 204.412 243.972 204.415 244.193 204.339C244.415 204.262 244.602 204.11 244.722 203.91C244.965 203.512 245.113 203.064 245.152 202.6L245.692 199.32C245.704 199.148 245.766 198.985 245.872 198.85C246.039 198.726 246.246 198.669 246.452 198.69C247.822 198.69 249.192 198.64 250.562 198.69C250.792 197.96 250.062 197.28 249.362 196.97C248.662 196.66 247.832 196.44 247.482 195.76C246.762 194.37 248.612 192.44 247.832 191.24C246.822 189.8 245.322 191.15 244.172 191.78Z" fill="#DA163D"/>
<path opacity="0.2" d="M143.622 249.81C143.482 249.891 143.324 249.938 143.162 249.95C142.872 249.95 142.672 249.65 142.542 249.38C141.882 247.94 142.262 246.08 141.242 244.87C140.208 246.112 139.375 247.509 138.772 249.01L134.892 247.81C134.708 248.562 134.678 249.344 134.804 250.109C134.929 250.874 135.208 251.605 135.622 252.26C134.94 252.559 134.319 252.983 133.792 253.51C133.53 253.773 133.346 254.104 133.261 254.466C133.176 254.828 133.194 255.207 133.312 255.56C134.212 255.777 135.137 255.871 136.062 255.84C135.914 257.545 136.011 259.262 136.352 260.94C136.377 261.19 136.495 261.422 136.682 261.59C136.84 261.651 137.012 261.669 137.179 261.641C137.347 261.612 137.503 261.539 137.632 261.43C138.978 260.6 140.082 259.431 140.832 258.04L142.272 261.49C142.378 261.848 142.609 262.157 142.922 262.36C143.142 262.433 143.38 262.431 143.599 262.355C143.818 262.279 144.005 262.133 144.132 261.94C144.372 261.54 144.519 261.093 144.562 260.63L145.102 257.34C145.111 257.171 145.174 257.009 145.282 256.88C145.445 256.755 145.649 256.698 145.852 256.72C147.222 256.72 148.592 256.66 149.962 256.67C150.202 255.95 149.472 255.27 148.772 254.96C148.072 254.65 147.242 254.42 146.882 253.74C146.172 252.35 148.022 250.42 147.232 249.23C146.312 247.83 144.822 249.22 143.622 249.81Z" fill="#DA163D"/>
<path opacity="0.5" d="M46.3624 46.7096C46.2227 46.7929 46.0648 46.841 45.9024 46.8496C45.6024 46.8496 45.4024 46.5496 45.2824 46.2896C44.6124 44.8496 45.0024 42.9896 43.9824 41.7696C42.9447 43.0135 42.111 44.4143 41.5124 45.9196L37.6224 44.7096C37.4403 45.4646 37.412 46.2486 37.5391 47.0148C37.6662 47.781 37.9462 48.5138 38.3624 49.1696C37.6766 49.4581 37.0546 49.8796 36.5324 50.4096C36.2697 50.6728 36.0856 51.0041 36.0008 51.3663C35.916 51.7284 35.9339 52.107 36.0524 52.4596C36.9479 52.6821 37.8704 52.7763 38.7924 52.7396C38.6518 54.4452 38.7528 56.1622 39.0924 57.8396C39.1014 57.9644 39.1352 58.0862 39.1918 58.1979C39.2485 58.3095 39.3269 58.4086 39.4224 58.4896C39.7024 58.6696 40.0824 58.4896 40.3724 58.3396C41.7114 57.5049 42.8106 56.3367 43.5624 54.9496L45.0124 58.3996C45.1142 58.7544 45.3417 59.0601 45.6524 59.2596C45.8714 59.3422 46.1124 59.3454 46.3335 59.2687C46.5546 59.192 46.7417 59.0401 46.8624 58.8396C47.1055 58.4422 47.2527 57.9937 47.2924 57.5296L47.8324 54.2496C47.8436 54.0783 47.9063 53.9145 48.0124 53.7796C48.1789 53.6556 48.3859 53.5985 48.5924 53.6196C49.9624 53.6196 51.3324 53.5696 52.7024 53.6196C52.9324 52.8896 52.2024 52.2096 51.5024 51.8996C50.8024 51.5896 49.9724 51.3696 49.6224 50.6896C48.9024 49.2996 50.7524 47.3696 49.9724 46.1696C49.0524 44.7296 47.5524 46.1496 46.3624 46.7096Z" fill="#DA163D"/>
<path opacity="0.5" d="M98.1724 161.15C98.0373 161.235 97.8821 161.283 97.7224 161.29C97.4224 161.29 97.2224 160.99 97.0924 160.73C96.4324 159.29 96.8124 157.43 95.8024 156.21C94.7651 157.456 93.9284 158.856 93.3224 160.36L89.3924 159.15C89.2111 159.904 89.1823 160.687 89.3076 161.453C89.433 162.219 89.71 162.952 90.1224 163.61C89.4394 163.903 88.8184 164.324 88.2924 164.85C88.0405 165.109 87.8637 165.432 87.7809 165.785C87.6982 166.137 87.7125 166.505 87.8224 166.85C88.7178 167.073 89.6404 167.167 90.5624 167.13C90.4235 168.835 90.5211 170.551 90.8524 172.23C90.8608 172.356 90.8955 172.478 90.954 172.59C91.0125 172.702 91.0937 172.801 91.1924 172.88C91.4724 173.06 91.8524 172.88 92.1324 172.73C93.4768 171.898 94.5801 170.73 95.3324 169.34L96.7824 172.79C96.8842 173.144 97.1117 173.45 97.4224 173.65C97.6413 173.732 97.8824 173.735 98.1034 173.659C98.3245 173.582 98.5117 173.43 98.6324 173.23C98.8729 172.831 99.0199 172.383 99.0624 171.92L99.6024 168.64C99.6136 168.468 99.6763 168.305 99.7824 168.17C99.9449 168.045 100.149 167.988 100.352 168.01C101.722 168.01 103.092 168.01 104.472 168.01C104.702 167.28 103.972 166.6 103.272 166.29C102.572 165.98 101.742 165.76 101.392 165.08C100.672 163.69 102.522 161.76 101.742 160.56C100.822 159.15 99.3224 160.57 98.1724 161.15Z" fill="#DA163D"/>
<path opacity="0.5" d="M60.5524 116.55C60.4165 116.632 60.2612 116.677 60.1024 116.68C59.8024 116.68 59.6024 116.39 59.4724 116.12C58.8124 114.68 59.1924 112.82 58.1724 111.61C57.1383 112.852 56.3049 114.249 55.7024 115.75L51.8224 114.55C51.6408 115.302 51.6118 116.084 51.7372 116.848C51.8626 117.613 52.1398 118.344 52.5524 119C51.872 119.298 51.2518 119.718 50.7224 120.24C50.4595 120.505 50.2762 120.838 50.1931 121.202C50.1101 121.567 50.1306 121.947 50.2524 122.3C51.1482 122.519 52.0709 122.61 52.9924 122.57C52.8486 124.278 52.9462 125.998 53.2824 127.68C53.3093 127.931 53.4308 128.164 53.6224 128.33C53.9024 128.51 54.2724 128.33 54.5624 128.17C55.9068 127.338 57.0101 126.17 57.7624 124.78L59.2124 128.23C59.3117 128.586 59.5397 128.892 59.8524 129.09C60.0702 129.173 60.3104 129.178 60.5314 129.103C60.7524 129.028 60.9402 128.878 61.0624 128.68C61.3001 128.28 61.4469 127.833 61.4924 127.37L62.0324 124.08C62.0437 123.911 62.1065 123.751 62.2124 123.62C62.374 123.493 62.5777 123.432 62.7824 123.45C64.1524 123.45 65.5224 123.4 66.8924 123.45C67.1324 122.72 66.4024 122.05 65.7024 121.74C65.0024 121.43 64.1724 121.2 63.8224 120.52C63.1024 119.13 64.9524 117.2 64.1624 116C63.2524 114.57 61.7524 115.95 60.5524 116.55Z" fill="#DA163D"/>
<path opacity="0.5" d="M221.922 127.05C221.787 127.135 221.632 127.183 221.472 127.19C221.172 127.19 220.972 126.89 220.852 126.62C220.182 125.19 220.562 123.32 219.552 122.11C218.515 123.354 217.681 124.754 217.082 126.26L213.172 125.05C212.991 125.803 212.962 126.584 213.087 127.348C213.213 128.113 213.49 128.844 213.902 129.5C213.221 129.8 212.601 130.224 212.072 130.75C211.811 131.014 211.629 131.346 211.546 131.708C211.463 132.07 211.483 132.448 211.602 132.8C212.499 133.018 213.421 133.112 214.342 133.08C214.204 134.785 214.301 136.501 214.632 138.18C214.643 138.305 214.678 138.427 214.736 138.539C214.795 138.651 214.875 138.75 214.972 138.83C215.252 139.01 215.632 138.83 215.912 138.67C217.261 137.844 218.365 136.674 219.112 135.28L220.562 138.73C220.665 139.087 220.892 139.396 221.202 139.6C221.421 139.682 221.662 139.685 221.883 139.609C222.105 139.532 222.292 139.38 222.412 139.18C222.652 138.78 222.799 138.333 222.842 137.87L223.382 134.59C223.394 134.418 223.456 134.255 223.562 134.12C223.725 133.995 223.929 133.938 224.132 133.96C225.502 133.96 226.882 133.91 228.252 133.96C228.482 133.23 227.752 132.55 227.052 132.24C226.352 131.93 225.522 131.7 225.172 131.02C224.452 129.63 226.302 127.7 225.522 126.51C224.622 125.07 223.172 126.46 221.922 127.05Z" fill="#DA163D"/>
<path opacity="0.2" d="M143.622 118.27C143.483 118.353 143.325 118.401 143.162 118.41C142.872 118.41 142.672 118.11 142.542 117.85C141.882 116.41 142.262 114.55 141.242 113.33C140.208 114.576 139.375 115.976 138.772 117.48L134.892 116.27C134.709 117.024 134.679 117.808 134.804 118.574C134.93 119.34 135.208 120.073 135.622 120.73C134.938 121.021 134.316 121.442 133.792 121.97C133.53 122.233 133.346 122.564 133.261 122.926C133.176 123.288 133.194 123.667 133.312 124.02C134.211 124.242 135.137 124.336 136.062 124.3C135.914 126.005 136.011 127.722 136.352 129.4C136.361 129.524 136.395 129.646 136.452 129.758C136.508 129.869 136.587 129.969 136.682 130.05C136.841 130.106 137.011 130.122 137.177 130.096C137.343 130.07 137.499 130.002 137.632 129.9C138.974 129.066 140.077 127.897 140.832 126.51L142.272 129.96C142.378 130.315 142.609 130.621 142.922 130.82C143.141 130.902 143.382 130.905 143.603 130.829C143.825 130.752 144.012 130.6 144.132 130.4C144.373 130.001 144.52 129.553 144.562 129.09L145.102 125.81C145.109 125.637 145.172 125.472 145.282 125.34C145.445 125.215 145.649 125.158 145.852 125.18C147.222 125.18 148.592 125.13 149.962 125.18C150.202 124.45 149.472 123.77 148.772 123.46C148.072 123.15 147.242 122.93 146.882 122.25C146.172 120.86 148.022 118.93 147.232 117.73C146.312 116.29 144.822 117.68 143.622 118.27Z" fill="#DA163D"/>
<path opacity="0.3" d="M119.052 128.96C118.913 129.043 118.755 129.091 118.592 129.1C118.302 129.1 118.092 128.8 117.972 128.54C117.312 127.1 117.692 125.23 116.672 124.02C115.629 125.258 114.786 126.651 114.172 128.15L110.282 126.94C110.1 127.695 110.072 128.479 110.199 129.245C110.326 130.011 110.606 130.744 111.022 131.4C110.338 131.691 109.716 132.112 109.192 132.64C108.93 132.903 108.746 133.234 108.661 133.596C108.576 133.958 108.594 134.337 108.712 134.69C109.611 134.912 110.537 135.006 111.462 134.97C111.313 136.675 111.411 138.392 111.752 140.07C111.761 140.194 111.795 140.316 111.852 140.428C111.908 140.539 111.987 140.639 112.082 140.72C112.241 140.776 112.411 140.792 112.577 140.766C112.743 140.74 112.899 140.672 113.032 140.57C114.374 139.735 115.477 138.567 116.232 137.18L117.672 140.63C117.777 140.983 118.004 141.287 118.312 141.49C118.533 141.575 118.776 141.579 118.999 141.503C119.222 141.426 119.411 141.272 119.532 141.07C119.774 140.672 119.918 140.223 119.952 139.76L120.492 136.48C120.508 136.309 120.57 136.147 120.672 136.01C120.839 135.886 121.046 135.828 121.252 135.85C122.622 135.85 123.992 135.8 125.362 135.85C125.602 135.12 124.872 134.44 124.172 134.13C123.472 133.82 122.632 133.6 122.282 132.92C121.572 131.53 123.422 129.6 122.632 128.4C121.742 126.98 120.252 128.37 119.052 128.96Z" fill="#DA163D"/>
<path opacity="0.2" d="M96.1724 64.2696C96.0327 64.3529 95.8748 64.401 95.7124 64.4096C95.4124 64.4096 95.2124 64.1096 95.0924 63.8396C94.4324 62.4096 94.8124 60.5396 93.7924 59.3296C92.7569 60.5714 91.9234 61.9685 91.3224 63.4696L87.4324 62.2696C87.25 63.0229 87.2215 63.8054 87.3486 64.57C87.4758 65.3347 87.756 66.0658 88.1724 66.7196C87.4881 67.0154 86.8669 67.4397 86.3424 67.9696C86.0797 68.2329 85.8956 68.5642 85.8108 68.9263C85.726 69.2884 85.7439 69.667 85.8624 70.0196C86.7587 70.2372 87.6806 70.3314 88.6024 70.2996C88.4621 72.0052 88.5631 73.7221 88.9024 75.3996C88.9113 75.5244 88.9452 75.6462 89.0018 75.7579C89.0585 75.8695 89.1369 75.9686 89.2324 76.0496C89.5124 76.2296 89.8924 76.0496 90.1824 75.8896C91.5246 75.0589 92.6247 73.8898 93.3724 72.4996L94.8224 75.9496C94.9245 76.3069 95.1517 76.6157 95.4624 76.8196C95.6814 76.9022 95.9224 76.9054 96.1435 76.8287C96.3646 76.752 96.5517 76.6001 96.6724 76.3996C96.9155 76.0022 97.0627 75.5537 97.1024 75.0896L97.6424 71.8096C97.6536 71.6383 97.7163 71.4745 97.8224 71.3396C97.9889 71.2156 98.1959 71.1585 98.4024 71.1796C99.7724 71.1796 101.142 71.1196 102.512 71.1296C102.742 70.4096 102.022 69.7296 101.312 69.4196C100.602 69.1096 99.7824 68.8796 99.4324 68.1996C98.7124 66.8096 100.562 64.8796 99.7824 63.6896C98.8424 62.2896 97.3424 63.6796 96.1724 64.2696Z" fill="#DA163D"/>
<path opacity="0.3" d="M141.262 148.69C141.123 148.773 140.965 148.818 140.802 148.82C140.512 148.82 140.312 148.53 140.182 148.26C139.522 146.82 139.902 144.96 138.882 143.75C137.848 144.992 137.015 146.389 136.412 147.89L132.532 146.69C132.348 147.442 132.318 148.224 132.444 148.989C132.569 149.754 132.848 150.485 133.262 151.14C132.582 151.438 131.962 151.858 131.432 152.38C131.17 152.645 130.986 152.978 130.903 153.342C130.82 153.707 130.841 154.087 130.962 154.44C131.858 154.659 132.781 154.75 133.702 154.71C133.559 156.418 133.656 158.138 133.992 159.82C134.017 160.07 134.135 160.302 134.322 160.47C134.487 160.541 134.669 160.564 134.846 160.536C135.023 160.507 135.188 160.429 135.322 160.31C136.666 159.478 137.77 158.309 138.522 156.92L139.962 160.37C140.072 160.726 140.302 161.034 140.612 161.24C140.832 161.313 141.07 161.311 141.289 161.235C141.508 161.159 141.695 161.013 141.822 160.82C142.062 160.42 142.209 159.973 142.252 159.51L142.792 156.22C142.806 156.052 142.868 155.892 142.972 155.76C143.134 155.633 143.338 155.572 143.542 155.59C144.912 155.59 146.282 155.54 147.652 155.59C147.892 154.86 147.162 154.19 146.462 153.88C145.762 153.57 144.932 153.34 144.582 152.66C143.862 151.27 145.712 149.34 144.922 148.15C143.962 146.71 142.462 148.09 141.262 148.69Z" fill="#DA163D"/>
</svg>
